<svg width="23" height="30" viewBox="0 0 23 30" fill="none" xmlns="http://www.w3.org/2000/svg">
<path d="M11.5332 29.5C5.20853 29.5 0.333252 24.7565 0.333252 18.5636C0.333252 16.3236 0.728545 14.6106 1.51913 13.293C2.30971 12.1071 2.70501 11.5801 3.36383 10.9213C3.62736 10.7895 3.75912 10.526 4.02265 10.2624L4.41794 9.73537C5.07676 9.07655 5.20853 8.94479 5.86735 7.75891C6.52617 6.57303 7.05323 3.80599 7.05323 1.82952C7.05323 1.30247 7.31675 0.907174 7.84381 0.643645C8.2391 0.380117 8.76616 0.511881 9.16145 0.77541L9.82027 1.30247C11.2697 2.35658 13.1144 3.93775 14.5638 6.17774C15.4861 7.62715 16.4085 9.60361 16.9355 11.1848C17.1991 10.6577 17.4626 9.9989 17.5944 9.20832C17.7261 8.68126 18.1214 8.1542 18.6485 8.02244C19.1755 7.89068 19.8344 8.1542 20.0979 8.68126C21.0202 10.2624 21.152 10.526 21.9426 12.8977C22.7332 15.4012 22.8649 16.9824 22.8649 18.4318C22.7332 24.493 17.7261 29.5 11.5332 29.5ZM9.42498 4.46481C9.16145 6.17774 8.76616 7.89068 8.10734 9.07655C7.31675 10.3942 7.05323 10.7895 6.3944 11.5801L5.99911 11.9754C5.73558 12.2389 5.47206 12.5024 5.34029 12.766C4.81323 13.4248 4.41794 13.8201 3.75912 14.7424C3.23206 15.6648 2.96854 16.9824 2.96854 18.6953C2.96854 23.3071 6.7897 26.9965 11.5332 26.9965C16.2767 26.9965 20.0979 23.1753 20.0979 18.4318C20.0979 17.1142 20.0979 15.9283 19.3073 13.8201C19.1755 13.4248 19.0438 13.1612 19.0438 12.8977C18.3849 13.9518 17.5944 14.6106 17.1991 14.8742C16.8038 15.1377 16.2767 15.2695 15.7497 15.0059C15.3544 14.7424 14.9591 14.3471 14.9591 13.8201C14.9591 13.4248 13.905 9.86714 12.4556 7.62715C11.5332 6.30951 10.4791 5.25539 9.42498 4.46481Z" fill="#6F6E7C"/>
</svg>
