<svg width="29" height="27" viewBox="0 0 29 27" fill="none" xmlns="http://www.w3.org/2000/svg">
<path d="M26.9447 9.53038C25.0467 3.20838 17.9289 -0.152686 11.145 1.98132C4.3612 4.11533 0.44204 10.9531 2.3489 17.2573C2.66654 18.3051 3.14068 19.2976 3.75488 20.2004C3.8671 20.3675 3.91978 20.5682 3.90426 20.7695C3.84315 21.4453 3.63691 22.0993 3.29995 22.686C2.96299 23.2727 2.50346 23.7779 1.95347 24.1661C0.863833 24.913 1.02201 25.7133 2.30496 25.5621C3.88265 25.4141 5.38131 24.7951 6.61077 23.7838C6.71489 23.6608 6.8597 23.5803 7.01817 23.5574C7.17664 23.5345 7.33793 23.5707 7.47193 23.6593C10.5211 25.7044 14.1679 26.0423 18.1925 24.7708C24.9412 22.6723 28.8779 15.8346 26.9447 9.53038Z" stroke="#6F6E7C" stroke-width="1.8" stroke-miterlimit="10"/>
</svg>
