<svg width="19" height="27" viewBox="0 0 19 27" fill="none" xmlns="http://www.w3.org/2000/svg">
<path d="M9.93211 18.7041C12.7911 18.7041 15.1161 16.3777 15.1161 13.5201V5.74406C15.1161 2.88508 12.7911 0.560059 9.93211 0.560059C7.07313 0.560059 4.74811 2.88508 4.74811 5.74406V13.5201C4.74811 16.3777 7.07313 18.7041 9.93211 18.7041ZM19.0041 13.5201V10.9281C19.0041 10.5843 18.8676 10.2547 18.6245 10.0116C18.3815 9.7686 18.0518 9.63206 17.7081 9.63206C17.3644 9.63206 17.0347 9.7686 16.7917 10.0116C16.5486 10.2547 16.4121 10.5843 16.4121 10.9281V13.5201C16.4121 17.0931 13.5052 20.0001 9.93211 20.0001C6.35903 20.0001 3.45211 17.0931 3.45211 13.5201V10.9281C3.45211 10.5843 3.31556 10.2547 3.07252 10.0116C2.82947 9.7686 2.49983 9.63206 2.15611 9.63206C1.81239 9.63206 1.48274 9.7686 1.2397 10.0116C0.99665 10.2547 0.860107 10.5843 0.860107 10.9281V13.5201C0.860107 18.082 4.24656 21.8559 8.63611 22.4884V23.8881H4.74811C4.40439 23.8881 4.07474 24.0246 3.8317 24.2676C3.58865 24.5107 3.45211 24.8403 3.45211 25.1841C3.45211 25.5278 3.58865 25.8574 3.8317 26.1005C4.07474 26.3435 4.40439 26.4801 4.74811 26.4801H15.1161C15.4598 26.4801 15.7895 26.3435 16.0325 26.1005C16.2756 25.8574 16.4121 25.5278 16.4121 25.1841C16.4121 24.8403 16.2756 24.5107 16.0325 24.2676C15.7895 24.0246 15.4598 23.8881 15.1161 23.8881H11.2281V22.4884C15.6177 21.8559 19.0041 18.082 19.0041 13.5201Z" fill="#8B88EF"/>
</svg>
